
<svg width="100%" height="100%" viewBox="0 0 1593 1200" version="1.1" xmlns="http://www.w3.org/2000/svg" xmlns:xlink="http://www.w3.org/1999/xlink" xml:space="preserve" xmlns:serif="http://www.serif.com/" style="fill-rule:evenodd;clip-rule:evenodd;stroke-linejoin:round;stroke-miterlimit:2;">
    <g transform="matrix(1,0,0,1,-285.018,-6052.12)">
        <g id="Artboard5" transform="matrix(1.10128,0,0,1.10128,-6474.64,4653.73)">
            <rect x="6138" y="1269.78" width="1446.49" height="1089.64" style="fill:rgb(229,255,0);"/>
            <clipPath id="_clip1">
                <rect x="6138" y="1269.78" width="1446.49" height="1089.64"/>
            </clipPath>
            <g clip-path="url(#_clip1)">
                <g>
                    <g transform="matrix(0.0121422,-16.9906,16.9906,0.0121422,5582.15,10616.5)">
                        <g transform="matrix(15.3022,0,0,15.3022,550.031,89.1862)">
                        </g>
                        <text x="485.67px" y="89.186px" style="font-family:'AbrilFatface-Regular', 'Abril Fatface';font-size:15.302px;">mShaikh</text>
                    </g>
                    <g transform="matrix(1.32169,0,0,0.908033,-4351.83,-33.4384)">
                        <rect x="8669.38" y="1435.21" width="152.392" height="1200"/>
                    </g>
                    <g transform="matrix(2.60287e-16,4.85415,-4.85415,4.22966e-16,29535,-59107.7)">
                        <g transform="matrix(64,0,0,64,12662.4,4619.84)">
                        </g>
                        <text x="12437.5px" y="4619.84px" style="font-family:'AbrilFatface-Regular', 'Abril Fatface';font-size:64px;fill:rgb(229,255,0);">w<tspan x="12488.6px " y="4619.84px ">e</tspan>bde<tspan x="12628.4px " y="4619.84px ">v</tspan></text>
                    </g>
                </g>
                <g transform="matrix(9.48566e-17,1.54913,-2.27888,1.39541e-16,26260.8,-26674.2)">
                    <g transform="matrix(12.7151,0,0,2.15371,-199384,-3299.66)">
                        <path d="M17095.5,5376.42L17095.5,5391.46L17158.8,5391.46L17158.8,5376.38"/>
                    </g>
                    <g transform="matrix(12.6259,0,0,1.07686,-197852,2469.63)">
                        <path d="M17095.5,5376.42L17095.5,5391.46L17158.8,5391.46L17158.8,5376.38"/>
                    </g>
                    <g transform="matrix(12.6923,0,0,0.538428,-198992,5352.26)">
                        <path d="M17095.5,5376.42L17095.5,5391.46L17158.8,5391.46L17158.8,5376.38"/>
                    </g>
                </g>
            </g>
        </g>
    </g>
</svg>
